#!OML:ASF I:\Actors\actors\Patient Classification 1\Patient 1\Session 1\Subject1.ASF
:FULLY-SPECIFIED
:DEGREES
475
root -1.17864 17.6476 8.22323 8.29695 15.436 -8.30739
lowerback 9.73862 1.60161 7.30956
upperback -7.93141 3.48052 0.628437
thorax -13.9169 0.970013 -4.14511
lowerneck -15.9975 1.55722 3.69575
upperneck 22.1492 -1.01871 9.25365
head 9.76511 0.94269 2.49305
rclavicle 1.06847e-015 -2.74323e-014
rhumerus 43.7552 66.9003 -45.2078
rradius 114.611
rwrist -31.04
rhand -6.49164 -63.1639
rfingers 7.12502
rthumb 19.3597 -267.78
lclavicle 1.06847e-015 -2.74323e-014
lhumerus 30.5075 0.401453 82.0276
lradius 54.0684
lwrist 58.2909
lhand -6.66083 -0.263106
lfingers 7.12502
lthumb 19.197 28.8094
rfemur -4.26265 13.8219 29.7243
rtibia 7.94757
rfoot -17.2897 -25.2393
rtoes 1.5927
lfemur -8.95043 -27.9997 -2.25598
ltibia 5.6932
lfoot -8.383 22.458
ltoes -16.1404
476
root -1.12794 17.6252 8.20054 8.62726 13.9926 -8.02794
lowerback 10.1051 1.52299 7.13688
upperback -7.89343 3.37167 0.608591
thorax -14.1212 0.923212 -4.06607
lowerneck -15.4665 1.80087 3.73203
upperneck 22.3386 -0.694731 9.37666
head 9.72141 1.10381 2.56841
rclavicle -2.69105e-014 2.26615e-014
rhumerus 43.6689 65.6649 -45.9375
rradius 116.218
rwrist -29.0402
rhand -5.50346 -61.9283
rfingers 7.12502
rthumb 20.3096 -269.114
lclavicle -2.69105e-014 2.26615e-014
lhumerus 30.7136 1.097 82.1996
lradius 55.5765
lwrist 58.8864
lhand -5.67411 -0.679575
lfingers 7.12502
lthumb 20.1456 28.2959
rfemur -4.70092 14.5609 29.1003
rtibia 8.24534
rfoot -17.2014 -24.7778
rtoes 1.7409
lfemur -8.61881 -27.6692 -2.91182
ltibia 5.65004
lfoot -8.65147 23.1692
ltoes -15.4975
477
root -1.07434 17.6246 8.17264 9.50514 12.505 -7.73815
lowerback 10.0849 1.56001 6.92761
upperback -7.98559 3.38461 0.569461
thorax -14.2222 0.94042 -3.99667
lowerneck -15.539 1.96053 3.56134
upperneck 22.7971 -0.515911 9.5361
head 9.89183 1.20866 2.69187
rclavicle 2.64321e-014 2.62396e-014
rhumerus 41.716 63.8446 -48.9079
rradius 117.61
rwrist -27.8106
rhand -6.93262 -61.8008
rfingers 7.12502
rthumb 18.9356 -269.101
lclavicle 2.64321e-014 2.62396e-014
lhumerus 31.2942 1.7292 82.5238
lradius 56.521
lwrist 58.9873
lhand -4.27829 -2.48109
lfingers 7.12502
lthumb 21.4867 26.3472
rfemur -6.11447 14.9513 28.1204
rtibia 9.0125
rfoot -16.9719 -23.6406
rtoes 1.3909
lfemur -9.01514 -27.3571 -3.32413
ltibia 5.66377
lfoot -8.74902 24.3164
ltoes -14.4276
478
root -1.02062 17.65 8.15256 10.5818 11.106 -7.53204
lowerback 9.83706 1.6088 6.59369
upperback -8.14455 3.39266 0.64603
thorax -14.2726 0.978287 -3.71785
lowerneck -16.0335 2.135 3.52065
upperneck 23.4306 -0.315807 9.36216
head 10.205 1.31086 2.69345
rclavicle 3.5452e-014 -5.1684e-015
rhumerus 38.8807 61.9212 -52.8717
rradius 118.434
rwrist -26.282
rhand -7.81852 -61.2026
rfingers 7.12502
rthumb 18.0835 -269.618
lclavicle 3.5452e-014 -5.1684e-015
lhumerus 31.8991 2.4097 82.8984
lradius 56.8189
lwrist 59.2243
lhand -5.01347 -2.04114
lfingers 7.12502
lthumb 20.7805 26.8661
rfemur -7.83723 15.2349 27.1173
rtibia 9.83424
rfoot -16.5867 -22.4295
rtoes 0.371258
lfemur -9.64537 -27.1578 -3.54189
ltibia 5.57908
lfoot -8.72473 25.6916
ltoes -13.2677
479
root -0.964633 17.6866 8.14031 11.5455 9.89432 -7.40863
lowerback 9.51365 1.59337 6.21431
upperback -8.33739 3.31762 0.83472
thorax -14.3341 0.989428 -3.2691
lowerneck -16.3106 2.32285 3.75378
upperneck 23.9293 -0.0691118 8.90965
head 10.4303 1.4138 2.54723
rclavicle 1.58919e-014 3.1408e-014
rhumerus 35.7331 60.591 -56.7754
rradius 118.639
rwrist -25.2945
rhand -5.35152 -63.0164
rfingers 7.12502
rthumb 20.4556 -268.041
lclavicle 1.58919e-014 3.1408e-014
lhumerus 32.0238 2.85727 82.9227
lradius 56.3442
lwrist 59.0945
lhand -6.11839 -0.31802
lfingers 7.12502
lthumb 19.7185 28.7019
rfemur -9.24842 15.6477 26.2546
rtibia 10.2729
rfoot -16.203 -21.5752
rtoes 0.0157873
lfemur -10.1357 -27.0948 -3.72169
ltibia 5.35558
lfoot -8.67159 27.0429
ltoes -12.4429
480
root -0.90758 17.7231 8.13112 12.1902 8.84715 -7.33901
lowerback 9.16181 1.51693 5.98506
upperback -8.40122 3.17321 1.01458
thorax -14.2215 0.961246 -2.89687
lowerneck -16.2099 2.43311 4.01601
upperneck 23.99 0.0992111 8.56383
head 10.4285 1.4708 2.40104
rclavicle -5.23697e-014 -1.43125e-014
rhumerus 33.2864 60.4761 -59.1822
rradius 117.901
rwrist -24.3361
rhand -6.24579 -62.7833
rfingers 7.12502
rthumb 19.5961 -268.184
lclavicle -5.23697e-014 -1.43125e-014
lhumerus 31.6927 2.66725 82.3592
lradius 55.3524
lwrist 58.8253
lhand -6.30203 -1.2292
lfingers 7.12502
lthumb 19.542 27.8087
rfemur -10.0812 16.1969 25.6049
rtibia 10.3215
rfoot -15.8594 -21.1691
rtoes 0.375895
lfemur -10.2917 -26.9939 -3.96488
ltibia 5.06018
lfoot -8.60077 28.0399
ltoes -11.8492
481
root -0.840327 17.7497 8.1166 12.42 7.98903 -7.40886
lowerback 9.05974 1.34518 6.2698
upperback -8.29156 2.98503 1.15982
thorax -14.0427 0.861554 -2.84996
lowerneck -16.2323 2.41642 3.9259
upperneck 23.9014 0.124524 8.46137
head 10.3971 1.45568 2.37939
rclavicle 8.23365e-015 3.85642e-014
rhumerus 31.6762 61.2162 -60.1314
rradius 116.411
rwrist -23.4125
rhand -8.37869 -61.2309
rfingers 7.12502
rthumb 17.5444 -269.541
lclavicle 8.23365e-015 3.85642e-014
lhumerus 31.1092 2.20981 81.6673
lradius 54.3806
lwrist 58.6759
lhand -6.09316 -1.29379
lfingers 7.12502
lthumb 19.7428 27.7236
rfemur -10.3787 16.2435 25.3196
rtibia 10.2682
rfoot -15.501 -20.7874
rtoes 0.117547
lfemur -10.1296 -26.8906 -4.23603
ltibia 4.91418
lfoot -8.62667 28.5696
ltoes -11.2763
482
root -0.771531 17.7616 8.10041 12.3224 7.30563 -7.57227
lowerback 9.36297 1.11023 6.87103
upperback -8.13514 2.78643 1.25149
thorax -14.0559 0.71427 -3.05217
lowerneck -16.3393 2.43564 3.85399
upperneck 23.7505 0.160077 8.49129
head 10.3606 1.46264 2.40366
rclavicle 3.32739e-014 -1.98785e-016
rhumerus 30.932 62.7763 -59.7077
rradius 114.825
rwrist -25.2194
rhand -8.10111 -61.9088
rfingers 7.12502
rthumb 17.8115 -268.887
lclavicle 3.32739e-014 -1.98785e-016
lhumerus 30.3283 1.77663 81.3213
lradius 53.4676
lwrist 58.6524
lhand -5.39913 -1.16041
lfingers 7.12502
lthumb 20.4099 27.787
rfemur -10.3049 16.0539 25.3147
rtibia 10.2107
rfoot -15.2254 -20.5225
rtoes -0.319171
lfemur -9.77343 -26.8328 -4.48681
ltibia 4.94571
lfoot -8.78469 28.7091
ltoes -10.7245
483
root -0.72123 17.7611 8.09194 12.0848 6.62889 -7.60694
lowerback 9.71455 0.889337 7.08131
upperback -7.91085 2.54667 1.3383
thorax -14.0349 0.589582 -3.03308
lowerneck -16.3317 2.51016 4.25786
upperneck 23.5853 0.244858 8.15965
head 10.3009 1.4896 2.22325
rclavicle -4.41364e-015 1.63003e-014
rhumerus 31.4139 64.3922 -57.9585
rradius 113.331
rwrist -27.5832
rhand -8.38847 -62.9931
rfingers 7.12502
rthumb 17.535 -267.778
lclavicle -4.41364e-015 1.63003e-014
lhumerus 29.6951 1.75071 81.6387
lradius 52.6624
lwrist 58.6763
lhand -5.29489 -0.925364
lfingers 7.12502
lthumb 20.5101 28.0113
rfemur -10.0594 16.3595 25.2692
rtibia 10.1797
rfoot -15.2683 -20.7287
rtoes 0.285514
lfemur -9.32014 -26.6677 -4.80587
ltibia 4.99816
lfoot -8.91121 28.5854
ltoes -10.7415
484
root -0.674087 17.7461 8.08055 11.8009 5.87977 -7.54117
lowerback 10.179 0.668966 7.142
upperback -7.68022 2.28995 1.38493
thorax -14.0808 0.466824 -2.97306
lowerneck -16.1512 2.51326 4.4991
upperneck 23.3201 0.243122 8.03426
head 10.1732 1.47952 2.12608
rclavicle -2.27546e-014 -2.18663e-014
rhumerus 33.2979 65.7541 -55.0818
rradius 112.313
rwrist -29.5198
rhand -8.89204 -63.4143
rfingers 7.12502
rthumb 17.0504 -267.314
lclavicle -2.27546e-014 -2.18663e-014
lhumerus 29.3672 2.10012 82.3727
lradius 52.1651
lwrist 58.7186
lhand -6.20252 -0.78244
lfingers 7.12502
lthumb 19.6377 28.2457
rfemur -9.75081 16.8234 25.1356
rtibia 10.1184
rfoot -15.4679 -21.0119
rtoes 1.35254
lfemur -8.78775 -26.3785 -5.26388
ltibia 5.02842
lfoot -9.12432 28.4408
ltoes -10.9713
485
root -0.621445 17.718 8.06172 11.6201 5.05298 -7.48549
lowerback 10.6883 0.465726 7.29172
upperback -7.52505 2.07698 1.3901
thorax -14.2379 0.347781 -3.01711
lowerneck -16.0036 2.24621 4.201
upperneck 23.301 -0.158165 8.47595
head 10.1482 1.31424 2.2757
rclavicle 6.49156e-016 -1.92821e-014
rhumerus 35.5035 66.296 -52.3508
rradius 112.472
rwrist -30.0905
rhand -8.8572 -63.7218
rfingers 7.12502
rthumb 17.0839 -267.009
lclavicle 6.49156e-016 -1.92821e-014
lhumerus 29.3579 2.28327 82.9084
lradius 51.8711
lwrist 58.6797
lhand -7.57698 -0.401015
lfingers 7.12502
lthumb 18.3158 28.7567
rfemur -9.54739 17.2207 24.9524
rtibia 10.0036
rfoot -15.418 -21.1195
rtoes 1.11055
lfemur -8.30239 -25.8665 -5.77131
ltibia 5.05483
lfoot -9.43125 28.3578
ltoes -10.8821
486
root -0.569592 17.6865 8.04115 11.7544 4.09317 -7.42161
lowerback 10.9972 0.338579 7.38203
upperback -7.50929 1.94624 1.37987
thorax -14.4276 0.268711 -3.05677
lowerneck -15.6079 2.16595 4.5994
upperneck 23.2209 -0.238591 8.05284
head 10.047 1.24938 2.03825
rclavicle -1.84994e-014 2.48481e-014
rhumerus 37.3086 65.9496 -50.5691
rradius 113.673
rwrist -29.24
rhand -7.81932 -63.0588
rfingers 7.12502
rthumb 18.0827 -267.762
lclavicle -1.84994e-014 2.48481e-014
lhumerus 29.4929 2.2172 83.2513
lradius 52.6015
lwrist 59.224
lhand -7.02679 -0.277237
lfingers 7.12502
lthumb 18.8451 28.8299
rfemur -9.74359 17.724 24.5788
rtibia 9.95711
rfoot -15.2526 -20.942
rtoes 0.191824
lfemur -8.07582 -25.3141 -6.22002
ltibia 5.02339
lfoot -9.5896 28.6077
ltoes -10.722
487
root -0.520065 17.6657 8.01874 12.307 2.99873 -7.25647
lowerback 11.0311 0.331829 7.26358
upperback -7.65703 1.92234 1.33927
thorax -14.6295 0.255098 -3.03124
lowerneck -15.5145 2.02624 4.39594
upperneck 23.3696 -0.393339 8.06206
head 10.0836 1.16274 2.05695
rclavicle -1.21165e-014 -2.24627e-014
rhumerus 36.9987 64.3227 -51.5834
rradius 115.369
rwrist -27.7651
rhand -7.28013 -62.2868
rfingers 7.12502
rthumb 18.6014 -268.583
lclavicle -1.21165e-014 -2.24627e-014
lhumerus 29.5845 2.19884 83.9903
lradius 54.5547
lwrist 59.443
lhand -4.90429 -0.759154
lfingers 7.12502
lthumb 20.8854 28.1366
rfemur -10.5644 18.2544 23.8274
rtibia 10.0659
rfoot -15.1121 -20.4005
rtoes -0.139393
lfemur -8.28599 -25.0866 -6.60749
ltibia 4.90672
lfoot -9.7064 29.4481
ltoes -9.98793
